<svg width="33" height="33" viewBox="0 0 33 33" fill="none" xmlns="http://www.w3.org/2000/svg">
<g clip-path="url(#clip0_611_5440)">
<path fill-rule="evenodd" clip-rule="evenodd" d="M32.2996 10.8708C32.3036 10.8864 32.3067 10.9023 32.3088 10.9182C32.5108 11.532 32.6209 12.2049 32.6198 12.8777C32.6207 14.9071 31.6617 16.7949 30.0668 17.9899C28.4794 16.1156 26.1088 14.9258 23.4603 14.9258C20.2848 14.9258 17.5087 16.6362 16.0032 19.1861C14.3147 19.0352 12.7811 18.2323 11.6998 16.9496C10.4979 18.3813 8.73463 19.2177 6.8308 19.2223H6.82725C5.69278 19.2223 4.68237 18.9903 3.82506 18.5309C1.74265 17.423 0.445653 15.2652 0.443359 12.9021C0.443359 12.2303 0.550075 11.561 0.762282 10.909C0.77504 10.8475 0.790249 10.7873 0.804076 10.7466L3.72752 3.83936C4.17889 2.49139 5.42476 1.63867 7.02802 1.63867H26.1152C27.7508 1.63867 29.0514 2.50777 29.5212 3.90664L32.2405 10.6759C32.2671 10.7384 32.2856 10.8034 32.2996 10.8708ZM14.8066 23.5794C14.8066 22.6114 14.9656 21.6805 15.2588 20.8114C13.9322 20.6293 12.7113 20.1591 11.702 19.3013C10.3633 20.4427 8.65453 20.9983 6.83426 20.9983H6.82735C5.71603 20.9983 5.0896 20.7873 4.0779 20.4137C4.05863 20.4041 4.0388 20.3977 4.01877 20.3913C4.00989 20.3885 4.00098 20.3856 3.99205 20.3825C3.96419 20.3719 3.94009 20.3631 3.91523 20.3541L3.91488 20.354L3.9147 20.3539C3.89629 20.3473 3.87744 20.3404 3.8563 20.3326C3.8563 20.3326 3.68934 20.3036 3.59768 20.3036H3.59535C2.95493 20.3036 2.43643 20.8243 2.4375 21.466L2.44561 27.6829C2.44561 29.3187 3.77859 30.6493 5.41776 30.6493L18.457 30.6409C16.248 29.0729 14.8066 26.4945 14.8066 23.5794ZM6.98852 12.0495H25.5514C26.1929 12.0495 26.7113 11.5297 26.7113 10.8893C26.7113 10.2491 26.1929 9.72933 25.5514 9.72933H6.98852C6.34828 9.72933 5.82853 10.249 5.82853 10.8893C5.82853 11.5297 6.34825 12.0495 6.98852 12.0495ZM30.5828 23.5795C30.5828 27.5126 27.3944 30.701 23.4613 30.701C19.5282 30.701 16.3398 27.5126 16.3398 23.5795C16.3398 19.6464 19.5282 16.458 23.4613 16.458C27.3944 16.458 30.5828 19.6464 30.5828 23.5795ZM21.2851 20.4893L20.596 25.6363C20.5912 25.6745 20.5984 25.7033 20.6175 25.7224C20.6415 25.7415 20.6702 25.7487 20.7037 25.7439L21.1846 25.6937L21.8738 20.6257C21.8833 20.5396 21.9168 20.4702 21.9743 20.4175C22.0365 20.3601 22.1083 20.3314 22.1896 20.3314H23.3453L22.4337 27.1007H20.998L21.1128 26.2392L19.914 26.3685C19.7178 26.3924 19.5575 26.3517 19.4331 26.2464C19.3134 26.1459 19.268 25.9856 19.2967 25.7655L19.9715 20.7765C19.9858 20.6951 20.0217 20.6281 20.0791 20.5755C20.1414 20.518 20.2108 20.4893 20.2873 20.4893H21.2851ZM25.1758 25.7511L25.1471 25.787C24.5058 26.6628 23.7043 27.1007 22.7423 27.1007H22.6921L24.4508 24.459L23.374 22.8726H24.7308C24.8217 22.8726 24.8959 22.918 24.9533 23.0089L25.2404 23.5258L26.3531 21.6738C26.4392 21.5493 26.5493 21.4871 26.6833 21.4871H28.0185L26.0014 24.5308L27.4299 27.1007H27.394C26.4847 27.1007 25.7501 26.6604 25.1902 25.7798L25.1758 25.7511ZM25.5132 20.3314L25.3697 20.6903H28.2626C28.2338 20.8578 28.1597 20.9966 28.04 21.1067C27.9252 21.212 27.7888 21.2646 27.6309 21.2646H25.1543L25.1112 21.3723C24.7044 22.2002 24.1086 22.6141 23.3238 22.6141L24.0416 20.5324C24.0991 20.3984 24.19 20.3314 24.3144 20.3314H25.5132Z" fill="#5258F4"/>
</g>
<defs>
<clipPath id="clip0_611_5440">
<rect width="32.1782" height="32.1782" fill="white" transform="translate(0.441406 0.0546875)"/>
</clipPath>
</defs>
</svg>
