<svg width="33" height="32" viewBox="0 0 33 32" fill="none" xmlns="http://www.w3.org/2000/svg">
<path fill-rule="evenodd" clip-rule="evenodd" d="M21.677 4.45273H11.952C11.2832 4.45273 10.7363 3.90586 10.7363 3.23711C10.7363 2.56836 11.2832 2.02148 11.952 2.02148H21.677C22.3457 2.02148 22.8926 2.56836 22.8926 3.23711C22.8926 3.90586 22.3457 4.45273 21.677 4.45273ZM21.7773 5.66758C23.1148 5.66758 24.2086 4.57383 24.2086 3.23633C27.5492 3.23633 30.2867 5.9707 30.2836 9.31445V17.6717C28.7043 15.982 26.4556 14.9258 23.9603 14.9258C21.864 14.9258 19.9418 15.6712 18.4443 16.9113H9.62109C8.95234 16.9113 8.40547 17.4582 8.40547 18.127C8.40547 18.7957 8.95234 19.3426 9.62109 19.3426H16.413C15.7808 20.4663 15.3924 21.7454 15.3192 23.1084C15.159 23.0302 14.9793 22.9863 14.7898 22.9863H9.92734C9.25859 22.9863 8.71172 23.5332 8.71172 24.202C8.71172 24.8707 9.25859 25.4176 9.92734 25.4176H14.7867C15.0354 25.4176 15.2672 25.342 15.4605 25.2126C15.8181 27.0848 16.7789 28.7429 18.1329 29.977H9.62109C6.27734 29.977 3.54297 27.2426 3.54297 23.8988V9.31445C3.54297 5.9707 6.27734 3.23633 9.62109 3.23633C9.62109 4.57383 10.7148 5.66758 12.0523 5.66758H21.7773ZM9.72422 13.2645H24.3086C24.9773 13.2645 25.5242 12.7176 25.5242 12.0488C25.5242 11.3801 24.9773 10.8332 24.3086 10.8332H9.72422C9.05547 10.8332 8.50859 11.3801 8.50859 12.0488C8.50859 12.7176 9.05547 13.2645 9.72422 13.2645ZM31.0828 23.5795C31.0828 27.5126 27.8944 30.701 23.9613 30.701C20.0282 30.701 16.8398 27.5126 16.8398 23.5795C16.8398 19.6464 20.0282 16.458 23.9613 16.458C27.8944 16.458 31.0828 19.6464 31.0828 23.5795ZM27.0663 23.1577L26.9713 23.7803C26.9502 23.8858 26.8974 23.9737 26.813 24.0441C26.7286 24.1074 26.6301 24.1391 26.5175 24.1391H25.019L24.9135 24.8461H26.813L26.7075 25.4793C26.6934 25.5848 26.6442 25.6727 26.5597 25.7431C26.4753 25.8134 26.3733 25.8486 26.2537 25.8486H24.7658L24.4809 27.6953H22.2226L22.5075 25.8486H20.6291L20.7241 25.2049C20.7452 25.0994 20.798 25.0149 20.8824 24.9516C20.9668 24.8813 21.0653 24.8461 21.1779 24.8461H22.6658L22.7713 24.1391H20.893L20.9879 23.5165C21.002 23.4109 21.0512 23.3265 21.1357 23.2632C21.2271 23.1928 21.3291 23.1577 21.4417 23.1577H22.4231L21.2412 19.612H22.6447C22.8839 19.612 23.0985 19.6788 23.2884 19.8125C23.4784 19.9461 23.6085 20.122 23.6789 20.3401L24.2065 22.1868H24.2804L25.5994 20.0974C25.8316 19.7738 26.1411 19.612 26.5281 19.612H27.8788L25.705 23.1577H27.0663Z" fill="#5258F4"/>
</svg>
