<svg width="33" height="33" viewBox="0 0 33 33" fill="none" xmlns="http://www.w3.org/2000/svg">
<g clip-path="url(#clip0_611_2516)">
<path fill-rule="evenodd" clip-rule="evenodd" d="M24.1269 2.08961L28.2841 6.54626H28.2822H21.9742H6.80078L14.7466 1.81413C15.7004 1.27287 17.0722 1.3953 17.8189 2.08961L18.8639 3.06081L21.0546 1.81413C22.0084 1.27287 23.3802 1.3953 24.1269 2.08961ZM6.7344 31.6913H20.9829C18.4742 30.1761 16.7969 27.4232 16.7969 24.2786C16.7969 19.4994 20.6712 15.625 25.4505 15.625C28.0512 15.625 30.3839 16.7722 31.9703 18.5882V12.4955C31.9703 9.60565 29.6883 7.26367 26.8725 7.26367H6.73443C3.91861 7.26367 1.63672 9.60565 1.63672 12.4955V26.4595C1.63672 29.3494 3.91861 31.6913 6.7344 31.6913ZM32.573 24.2797C32.573 28.2128 29.3846 31.4012 25.4516 31.4012C21.5185 31.4012 18.3301 28.2128 18.3301 24.2797C18.3301 20.3466 21.5185 17.1582 25.4516 17.1582C29.3846 17.1582 32.573 20.3466 32.573 24.2797ZM22.2988 20.5294V22.017C22.2988 22.0457 22.3051 22.0741 22.3171 22.1001C22.3292 22.1262 22.3468 22.1493 22.3687 22.1678L24.6869 24.1293C24.7088 24.1479 24.7264 24.1709 24.7384 24.1969C24.7505 24.223 24.7567 24.2513 24.7567 24.2799C24.7567 24.3086 24.7505 24.3369 24.7384 24.3629C24.7264 24.389 24.7088 24.412 24.6869 24.4306L22.3687 26.3921C22.3468 26.4106 22.3292 26.4337 22.3171 26.4598C22.3051 26.4858 22.2988 26.5142 22.2988 26.5429V28.0305C22.2988 28.0564 22.3039 28.0821 22.3139 28.106C22.3238 28.13 22.3383 28.1517 22.3566 28.17C22.375 28.1884 22.3967 28.2029 22.4207 28.2128C22.4446 28.2228 22.4703 28.2279 22.4962 28.2279H28.4181C28.444 28.2279 28.4697 28.2228 28.4936 28.2128C28.5176 28.2029 28.5393 28.1884 28.5577 28.17C28.576 28.1517 28.5905 28.13 28.6005 28.106C28.6104 28.0821 28.6155 28.0564 28.6155 28.0305V26.5429C28.6155 26.5142 28.6093 26.4858 28.5972 26.4598C28.5851 26.4337 28.5675 26.4106 28.5456 26.3921L26.2278 24.4306C26.2059 24.412 26.1883 24.389 26.1763 24.3629C26.1642 24.3369 26.158 24.3086 26.158 24.2799C26.158 24.2513 26.1642 24.223 26.1763 24.1969C26.1883 24.1709 26.2059 24.1479 26.2278 24.1293L28.5456 22.1678C28.5675 22.1493 28.5851 22.1262 28.5972 22.1001C28.6093 22.0741 28.6155 22.0457 28.6155 22.017V20.5294C28.6155 20.5035 28.6104 20.4778 28.6005 20.4539C28.5905 20.4299 28.576 20.4082 28.5577 20.3898C28.5393 20.3715 28.5176 20.357 28.4936 20.3471C28.4697 20.3371 28.444 20.332 28.4181 20.332H22.4962C22.4703 20.332 22.4446 20.3371 22.4207 20.3471C22.3967 20.357 22.375 20.3715 22.3566 20.3898C22.3383 20.4082 22.3238 20.4299 22.3139 20.4539C22.3039 20.4778 22.2988 20.5035 22.2988 20.5294Z" fill="#5258F4"/>
</g>
<defs>
<clipPath id="clip0_611_2516">
<rect width="32.1782" height="32.1782" fill="white" transform="translate(0.824219 0.0546875)"/>
</clipPath>
</defs>
</svg>
