<?xml version="1.0" standalone="no"?><!DOCTYPE svg PUBLIC "-//W3C//DTD SVG 1.1//EN" "http://www.w3.org/Graphics/SVG/1.1/DTD/svg11.dtd"><svg t="1740365124769" class="icon" viewBox="0 0 1024 1024" version="1.1" xmlns="http://www.w3.org/2000/svg" p-id="29091" xmlns:xlink="http://www.w3.org/1999/xlink" width="200" height="200"><path d="M901.62895 0H119.49398C50.389686 3.141104-3.009087 59.680982 0.132017 128.785276v587.386503c-3.141104 69.104294 50.257669 125.644172 119.361963 128.785276h213.595092v109.938651H84.941833c-18.846626 0-34.552147 15.705521-34.552147 34.552147 0 18.846626 15.705521 34.552147 34.552147 34.552147h851.239264c18.846626 0 34.552147-15.705521 34.552147-34.552147 0-18.846626-15.705521-34.552147-34.552147-34.552147h-248.147239v-109.938651h213.595092c69.104294-3.141104 122.503067-59.680982 119.361963-128.785276V128.785276c3.141104-69.104294-50.257669-125.644172-119.361963-128.785276z m-282.699387 951.754601h-219.8773v-97.374233h219.8773v97.374233z m25.128835-480.588957c21.98773 0 43.97546 18.846626 43.97546 40.834356s-18.846626 43.97546-43.97546 43.97546h-94.233129V628.220859c0 21.98773-18.846626 37.693252-37.693252 37.693251s-37.693252-18.846626-37.693251-37.693251v-69.104295H377.064533c-21.98773 0-43.97546-18.846626-43.975461-40.834355 0-21.98773 18.846626-40.834356 40.834356-40.834356l94.233129-3.141105v-25.128834h-97.374233c-21.98773 0-43.97546-18.846626-43.97546-40.834356 0-21.98773 18.846626-40.834356 40.834356-40.834356H439.886618l-72.245398-119.361963c-12.564417-18.846626-6.282209-40.834356 12.564417-53.398773 9.423313-6.282209 18.846626-6.282209 28.269939-6.282208 15.705521 0 25.128834 6.282209 31.411042 15.705521l69.104295 116.220859 65.96319-116.220859c3.141104-9.423313 12.564417-15.705521 21.98773-18.846626 9.423313-3.141104 21.98773 0 28.269939 3.141105 18.846626 9.423313 25.128834 34.552147 15.705521 53.398773v3.141104l-69.104294 119.361963h75.386503c12.564417 0 21.98773 6.282209 28.269939 12.564417 6.282209 9.423313 12.564417 18.846626 9.423312 31.411043 0 12.564417-6.282209 21.98773-12.564417 28.269939-9.423313 6.282209-18.846626 12.564417-31.411043 9.423313h-94.233129v25.128834h97.374234z" p-id="29092"></path></svg>