<?xml version="1.0" standalone="no"?><!DOCTYPE svg PUBLIC "-//W3C//DTD SVG 1.1//EN" "http://www.w3.org/Graphics/SVG/1.1/DTD/svg11.dtd"><svg class="icon" width="200px" height="200.00px" viewBox="0 0 1024 1024" version="1.1" xmlns="http://www.w3.org/2000/svg"><path d="M99.948228 817.693138a52.011707 52.011707 0 0 1-45.792781-27.252553c-13.690797-25.258667-4.308293-56.844488 20.958699-70.535284l178.6547-96.805464c28.626211-15.497366 72.579122-22.299057 104.518764-16.200845 2.185366 0.420423 4.337431 0.974049 6.452032 1.665041l139.975805 45.930146c27.302504 8.953756 42.17548 38.358374 33.213399 65.656715-8.953756 27.302504-38.354211 42.179642-65.656716 33.213399L336.421463 708.795317c-9.31174-0.81587-26.057886 1.993886-33.092683 5.806829l-178.638048 96.797139a51.82439 51.82439 0 0 1-24.742504 6.293853zM208.937626 994.878439a51.974244 51.974244 0 0 1-43.049626-22.744455c-16.17587-23.751805-10.040195-56.116033 13.71161-72.296065 15.980228-10.885203 41.859122-29.050797 49.364292-35.361301 23.735154-19.968 64.724293-31.444293 99.661009-27.83948 0.969886 0.091577 1.93561 0.22478 2.89717 0.378797l244.224 38.970276c4.845268-0.09574 14.856325-4.041886 18.078179-7.259577 0.778407-0.861659 1.481886-1.602602 2.318569-2.405984l217.866407-211.714081-175.811643 88.542699c-25.666602 12.920715-56.952715 2.601626-69.877593-23.060813-12.920715-25.666602-2.593301-56.956878 23.064976-69.877593l230.658081-116.169886c0.707642-0.353821 1.419447-0.690992 2.135415-1.011513 39.249171-17.578667 88.292943-8.932943 116.611121 20.571578 31.939642 33.29665 31.714862 87.435447-0.507837 123.246309-0.782569 0.861659-1.585951 1.698341-2.414309 2.514211l-268.188097 260.608c-25.07135 26.682276-68.866081 43.249431-105.101529 39.528065a48.548423 48.548423 0 0 1-2.888845-0.382959l-244.652748-39.045204c-7.084748-0.312195-17.90335 2.405984-21.770407 4.628813-14.677333 12.163122-50.030309 36.347837-57.065106 41.143155a51.866016 51.866016 0 0 1-29.263089 9.037008zM494.812618 570.709333c-146.810797 0-266.252488-119.437528-266.252488-266.248325S348.001821 38.200195 494.812618 38.200195c146.814959 0 266.252488 119.441691 266.252488 266.252488s-119.437528 266.25665-266.252488 266.25665z m0-428.444097c-89.429333 0-162.187447 72.758114-162.187447 162.187447s72.758114 162.187447 162.187447 162.187447 162.187447-72.758114 162.187447-162.187447-72.758114-162.187447-162.187447-162.187447z" /></svg>