<svg width="33" height="33" viewBox="0 0 33 33" fill="none" xmlns="http://www.w3.org/2000/svg">
<g clip-path="url(#clip0_611_2787)">
<path fill-rule="evenodd" clip-rule="evenodd" d="M21.677 4.59727H11.952C11.2832 4.59727 10.7363 4.05039 10.7363 3.38164C10.7363 2.71289 11.2832 2.16602 11.952 2.16602H21.677C22.3457 2.16602 22.8926 2.71289 22.8926 3.38164C22.8926 4.05039 22.3457 4.59727 21.677 4.59727ZM21.7773 5.81211C23.1148 5.81211 24.2086 4.71836 24.2086 3.38086C27.5492 3.38086 30.2867 6.11523 30.2836 9.45898V17.8162C28.7043 16.1265 26.4556 15.0703 23.9603 15.0703C19.181 15.0703 15.3066 18.9447 15.3066 23.724C15.3066 26.2586 16.3964 28.5388 18.1329 30.1215H9.62109C6.27734 30.1215 3.54297 27.3871 3.54297 24.0434V9.45898C3.54297 6.11523 6.27734 3.38086 9.62109 3.38086C9.62109 4.71836 10.7148 5.81211 12.0523 5.81211H21.7773ZM17.7606 14.5193L17.6124 15.4904C17.5795 15.655 17.4972 15.7921 17.3656 15.9019C17.2339 16.0006 17.0803 16.05 16.9047 16.05H14.5676L14.403 17.1527H17.3656L17.201 18.1402C17.179 18.3048 17.1022 18.442 16.9706 18.5517C16.8389 18.6614 16.6798 18.7163 16.4933 18.7163H14.1726L13.7282 21.5966H10.206L10.6504 18.7163H7.72078L7.86891 17.7123C7.90183 17.5477 7.98412 17.4161 8.11579 17.3173C8.24746 17.2076 8.40107 17.1527 8.57663 17.1527H10.8973L11.0619 16.05H8.13225L8.28038 15.0789C8.30232 14.9143 8.37913 14.7827 8.5108 14.6839C8.65344 14.5742 8.81254 14.5193 8.9881 14.5193H10.5188L8.67539 8.98922H10.8644C11.2375 8.98922 11.5721 9.09346 11.8684 9.30194C12.1646 9.51042 12.3676 9.78473 12.4773 10.1249L13.3003 13.0051H13.4155L15.4728 9.74632C15.8349 9.24159 16.3177 8.98922 16.9212 8.98922H19.0279L15.6374 14.5193H17.7606ZM31.0828 23.724C31.0828 27.6571 27.8944 30.8455 23.9613 30.8455C20.0282 30.8455 16.8398 27.6571 16.8398 23.724C16.8398 19.7909 20.0282 16.6025 23.9613 16.6025C27.8944 16.6025 31.0828 19.7909 31.0828 23.724ZM28.4654 20.4187C28.8662 20.7987 28.883 21.4317 28.503 21.8324L23.496 27.1133C23.309 27.3105 23.0498 27.4232 22.778 27.4253C22.5063 27.4273 22.2453 27.3187 22.0553 27.1244L18.9706 23.9697C18.5844 23.5748 18.5915 22.9417 18.9864 22.5556C19.3813 22.1695 20.0144 22.1766 20.4005 22.5714L22.7592 24.9836L27.0517 20.4564C27.4317 20.0556 28.0646 20.0387 28.4654 20.4187Z" fill="#5258F4"/>
</g>
<defs>
<clipPath id="clip0_611_2787">
<rect width="32.1782" height="32.1782" fill="white" transform="translate(0.824219 0.0546875)"/>
</clipPath>
</defs>
</svg>
