<svg width="26" height="30" viewBox="0 0 26 30" fill="none" xmlns="http://www.w3.org/2000/svg">
<path d="M13.0253 0.150391H1.88928C1.30528 0.150391 0.113281 1.31859 0.113281 1.77069V27.5701C0.113281 28.9099 0.942081 29.8504 2.15008 29.8504H23.3453C24.9933 29.8504 25.7117 28.8851 25.7117 27.641V11.8406L13.0253 0.150391ZM5.60448 17.0546C5.05248 16.5365 4.77568 15.7346 4.77568 14.6489C4.77568 13.5698 5.05248 12.7679 5.60768 12.2482C6.15968 11.7268 6.91328 11.4661 7.86528 11.4677C8.83488 11.4677 9.60928 11.7268 10.1613 12.2432C10.7133 12.7597 10.9901 13.5682 10.9901 14.6489C10.9901 15.7297 10.7133 16.5299 10.1613 17.0513C9.60928 17.5727 8.85728 17.8334 7.91328 17.8334C6.92928 17.8334 6.15968 17.5744 5.60448 17.0546ZM8.49408 23.4896L15.5133 11.4677L17.3277 12.1739L10.3661 24.1975L8.49408 23.4896ZM20.2125 22.7092C19.6589 23.2306 18.9101 23.4913 17.9645 23.4896C16.9869 23.4896 16.2205 23.2306 15.6685 22.7092C15.1165 22.1894 14.8413 21.3875 14.8413 20.3035C14.8413 19.2244 15.1181 18.4241 15.6733 17.9044C16.2253 17.3863 16.9789 17.1256 17.9325 17.1239C18.9021 17.1239 19.6605 17.3846 20.2093 17.9044C20.7565 18.4258 21.0333 19.2244 21.0381 20.3035C21.0445 21.3875 20.7709 22.1894 20.2173 22.7092H20.2125Z" fill="#5258F4"/>
</svg>
