<?xml version="1.0" standalone="no"?><!DOCTYPE svg PUBLIC "-//W3C//DTD SVG 1.1//EN" "http://www.w3.org/Graphics/SVG/1.1/DTD/svg11.dtd"><svg class="icon" width="200px" height="163.06px" viewBox="0 0 1256 1024" version="1.1" xmlns="http://www.w3.org/2000/svg"><path d="M250.507636 18.618182l153.6 162.909091a37.236364 37.236364 0 1 1-54.225454 51.106909L260.654545 137.914182V940.218182h940.637091a37.236364 37.236364 0 0 1 36.957091 32.581818l0.279273 4.654545a37.236364 37.236364 0 0 1-37.236364 37.236364H223.371636A37.236364 37.236364 0 0 1 186.181818 977.454545V140.288L96.907636 235.008A37.236364 37.236364 0 0 1 42.728727 183.854545L190.184727 27.368727A37.189818 37.189818 0 0 1 250.507636 18.618182zM720.989091 723.921455l-1.722182-0.232728a41.192727 41.192727 0 0 1-4.375273-0.977454l-0.558545-0.186182-1.210182-0.372364a40.494545 40.494545 0 0 1-8.936727-4.282182l-2.466909-1.722181a38.446545 38.446545 0 0 1-2.839273-2.327273l-0.418909-0.372364-249.204364-231.005091a40.634182 40.634182 0 0 1 55.249455-59.578181l219.229091 203.264 387.258182-426.356364a40.634182 40.634182 0 0 1 53.434181 61.300364l-405.550545 446.55709a41.053091 41.053091 0 0 1-2.978909 3.630546l-2.792727 2.56-0.325819 0.465454-0.372363 0.232728-0.372364 0.279272-2.606545 2.048-1.722182 1.210182a39.377455 39.377455 0 0 1-8.564364 4.049455l-2.048 0.651636-1.908363 0.465455a40.494545 40.494545 0 0 1-9.076364 1.024l-0.605091-0.046546-3.956364-0.232727-0.372363-0.046545h0.372363l4.561455 0.325818-3.444364-0.139637-1.442909-0.186181h-0.232727z" /></svg>