<svg width="18" height="18" viewBox="0 0 18 18" xmlns="http://www.w3.org/2000/svg">
<path fill-rule="evenodd" clip-rule="evenodd" d="M4.1317 17.1701H13.6966C15.5697 17.1701 17.0841 15.6556 17.0841 13.7825V4.21764C17.0841 2.34452 15.5697 0.830078 13.6966 0.830078H4.1317C2.25858 0.830078 0.744141 2.34452 0.744141 4.21764V13.7825C0.744141 15.6556 2.25858 17.1701 4.1317 17.1701ZM1.14268 4.21764C1.14268 2.58364 2.4977 1.22861 4.1317 1.22861H13.6966C15.3306 1.22861 16.6856 2.58364 16.6856 4.21764V13.7825C16.6856 15.4165 15.3306 16.7715 13.6966 16.7715H4.1317C2.4977 16.7715 1.14268 15.4165 1.14268 13.7825V4.21764ZM12.4885 14.9336H15.9141L10.1428 2.12504H7.4247L1.91406 14.9336H5.19066L6.23321 12.0293H11.3715L12.4885 14.9336ZM8.76513 5.10376L10.5151 9.86972H7.05236L8.76513 5.10376Z" />
</svg>
