<svg width="33" height="33" viewBox="0 0 33 33" fill="none" xmlns="http://www.w3.org/2000/svg">
<g clip-path="url(#clip0_611_2892)">
<path fill-rule="evenodd" clip-rule="evenodd" d="M32.6825 10.8708C32.6864 10.8864 32.6895 10.9023 32.6916 10.9182C32.8936 11.532 33.0037 12.2049 33.0026 12.8777C33.0035 14.9071 32.0445 16.7949 30.4496 17.9899C28.8622 16.1156 26.4916 14.9258 23.8431 14.9258C20.6676 14.9258 17.8915 16.6362 16.386 19.1861C14.6975 19.0352 13.1639 18.2323 12.0826 16.9496C10.8807 18.3813 9.11744 19.2177 7.21361 19.2223H7.21006C6.07559 19.2223 5.06518 18.9903 4.20787 18.5309C2.12546 17.423 0.828466 15.2652 0.826172 12.9021C0.826172 12.2303 0.932888 11.561 1.14509 10.909C1.15785 10.8475 1.17306 10.7873 1.18689 10.7466L4.11033 3.83936C4.56171 2.49139 5.80757 1.63867 7.41083 1.63867H26.498C28.1336 1.63867 29.4342 2.50777 29.904 3.90664L32.6233 10.6759C32.6499 10.7384 32.6684 10.8034 32.6825 10.8708ZM15.1895 23.5794C15.1895 22.6114 15.3484 21.6805 15.6416 20.8114C14.315 20.6293 13.0941 20.1591 12.0848 19.3013C10.7461 20.4427 9.03734 20.9983 7.21707 20.9983H7.21016C6.09885 20.9983 5.47241 20.7873 4.46071 20.4137C4.44144 20.4041 4.42161 20.3977 4.40158 20.3913C4.39271 20.3885 4.38379 20.3856 4.37486 20.3825C4.347 20.3719 4.32291 20.3631 4.29804 20.3541L4.29769 20.354L4.29751 20.3539C4.2791 20.3473 4.26025 20.3404 4.23911 20.3326C4.23911 20.3326 4.07215 20.3036 3.98049 20.3036H3.97816C3.33774 20.3036 2.81925 20.8243 2.82031 21.466L2.82842 27.6829C2.82842 29.3187 4.1614 30.6493 5.80057 30.6493L18.8398 30.6409C16.6308 29.0729 15.1895 26.4945 15.1895 23.5794ZM7.37133 12.0495H25.9342C26.5757 12.0495 27.0942 11.5297 27.0942 10.8893C27.0942 10.2491 26.5757 9.72933 25.9342 9.72933H7.37133C6.7311 9.72933 6.21134 10.249 6.21134 10.8893C6.21134 11.5297 6.73106 12.0495 7.37133 12.0495ZM30.9656 23.5795C30.9656 27.5126 27.7772 30.701 23.8441 30.701C19.911 30.701 16.7227 27.5126 16.7227 23.5795C16.7227 19.6464 19.911 16.458 23.8441 16.458C27.7772 16.458 30.9656 19.6464 30.9656 23.5795ZM22.5424 22.209H21.3367V20.8024C21.3367 20.4962 21.3973 20.2107 21.5185 19.946C21.6397 19.6812 21.8072 19.4484 22.0209 19.2475C22.2346 19.0465 22.4866 18.8886 22.7768 18.7738C23.0671 18.659 23.3845 18.6016 23.7289 18.6016C24.0351 18.6016 24.3302 18.659 24.614 18.7738C24.8979 18.8886 25.1499 19.0465 25.37 19.2475C25.5901 19.4484 25.7655 19.6812 25.8963 19.946C26.027 20.2107 26.0924 20.4962 26.0924 20.8024V22.209H24.9346V21.0703C24.9346 20.6684 24.823 20.3574 24.5997 20.1374C24.3764 19.9173 24.0734 19.8072 23.6907 19.8072C23.3462 19.8072 23.0687 19.9173 22.8582 20.1374C22.6477 20.3574 22.5424 20.6684 22.5424 21.0703V22.209ZM26.6666 22.7831C26.8388 22.7831 26.9871 22.8453 27.1115 22.9697C27.2359 23.0941 27.2981 23.2424 27.2981 23.4147V26.381C27.2981 26.5532 27.2678 26.7143 27.2072 26.8642C27.1466 27.0141 27.0637 27.1449 26.9584 27.2566C26.8531 27.3682 26.7288 27.4559 26.5852 27.5197C26.4417 27.5835 26.2838 27.6154 26.1116 27.6154H21.2793C21.1071 27.6154 20.9508 27.5835 20.8104 27.5197C20.6701 27.4559 20.5505 27.3714 20.4516 27.2661C20.3527 27.1609 20.2762 27.0381 20.222 26.8977C20.1677 26.7574 20.1406 26.6075 20.1406 26.448V23.4147C20.1406 23.2424 20.2012 23.0941 20.3224 22.9697C20.4436 22.8453 20.5904 22.7831 20.7626 22.7831H21.3367H22.5424H24.9346H26.0924H26.6666Z" fill="#5258F4"/>
</g>
<defs>
<clipPath id="clip0_611_2892">
<rect width="32.1782" height="32.1782" fill="white" transform="translate(0.824219 0.0546875)"/>
</clipPath>
</defs>
</svg>
