<svg width="33" height="33" viewBox="0 0 33 33" fill="none" xmlns="http://www.w3.org/2000/svg">
<g clip-path="url(#clip0_611_4215)">
<path fill-rule="evenodd" clip-rule="evenodd" d="M32.6825 10.8708C32.6864 10.8864 32.6895 10.9023 32.6916 10.9182C32.8936 11.532 33.0037 12.2049 33.0026 12.8777C33.0035 14.9071 32.0445 16.7949 30.4496 17.9899C28.8622 16.1156 26.4916 14.9258 23.8431 14.9258C20.6676 14.9258 17.8915 16.6362 16.386 19.1861C14.6975 19.0352 13.1639 18.2323 12.0826 16.9496C10.8807 18.3813 9.11744 19.2177 7.21361 19.2223H7.21006C6.07559 19.2223 5.06518 18.9903 4.20787 18.5309C2.12546 17.423 0.828466 15.2652 0.826172 12.9021C0.826172 12.2303 0.932888 11.561 1.14509 10.909C1.15785 10.8475 1.17306 10.7873 1.18689 10.7466L4.11033 3.83936C4.56171 2.49139 5.80757 1.63867 7.41083 1.63867H26.498C28.1336 1.63867 29.4342 2.50777 29.904 3.90664L32.6233 10.6759C32.6499 10.7384 32.6684 10.8034 32.6825 10.8708ZM15.1895 23.5794C15.1895 22.6114 15.3484 21.6805 15.6416 20.8114C14.315 20.6293 13.0941 20.1591 12.0848 19.3013C10.7461 20.4427 9.03734 20.9983 7.21707 20.9983H7.21016C6.09885 20.9983 5.47241 20.7873 4.46071 20.4137C4.44144 20.4041 4.42161 20.3977 4.40158 20.3913C4.39271 20.3885 4.38379 20.3856 4.37486 20.3825C4.347 20.3719 4.32291 20.3631 4.29804 20.3541L4.29769 20.354L4.29751 20.3539C4.2791 20.3473 4.26025 20.3404 4.23911 20.3326C4.23911 20.3326 4.07215 20.3036 3.98049 20.3036H3.97816C3.33774 20.3036 2.81925 20.8243 2.82031 21.466L2.82842 27.6829C2.82842 29.3187 4.1614 30.6493 5.80057 30.6493L18.8398 30.6409C16.6308 29.0729 15.1895 26.4945 15.1895 23.5794ZM7.37133 12.0495H25.9342C26.5757 12.0495 27.0942 11.5297 27.0942 10.8893C27.0942 10.2491 26.5757 9.72933 25.9342 9.72933H7.37133C6.7311 9.72933 6.21134 10.249 6.21134 10.8893C6.21134 11.5297 6.73106 12.0495 7.37133 12.0495ZM30.9656 23.5795C30.9656 27.5126 27.7772 30.701 23.8441 30.701C19.911 30.701 16.7227 27.5126 16.7227 23.5795C16.7227 19.6464 19.911 16.458 23.8441 16.458C27.7772 16.458 30.9656 19.6464 30.9656 23.5795ZM19.7298 27.1007L20.3471 22.7505H19.6364L20.6988 20.6472C20.8185 20.4463 20.9812 20.3458 21.187 20.3458H22.4145L21.51 22.205H21.8618L21.1942 27.1007H19.7298ZM27.181 26.311C27.1523 26.5264 27.0494 26.713 26.8723 26.8709C26.6904 27.0241 26.4894 27.1007 26.2693 27.1007H24.0799L24.0942 27.0002C24.1182 26.8614 24.1804 26.7489 24.2809 26.6628C24.3814 26.5766 24.501 26.5336 24.6398 26.5336H25.3792C25.4558 26.5336 25.5228 26.5072 25.5802 26.4546C25.6376 26.402 25.6711 26.3397 25.6807 26.268L26.3339 21.724H22.6155L22.6442 21.4512C22.6633 21.3555 22.7088 21.2766 22.7806 21.2143C22.8524 21.1521 22.9361 21.121 23.0318 21.121H26.4129L26.4847 20.6257C26.499 20.5396 26.5373 20.4702 26.5995 20.4175C26.6617 20.3601 26.7359 20.3314 26.822 20.3314H28.0352L27.9203 21.121H28.6525L28.6167 21.3938C28.6023 21.4895 28.5568 21.5685 28.4803 21.6307C28.4085 21.6929 28.3247 21.724 28.229 21.724H27.8414L27.181 26.311ZM22.5724 22.9874L25.3648 23.8775L25.1782 24.5882L23.0103 23.8919C22.8284 23.8297 22.6873 23.722 22.5868 23.5689C22.4911 23.4157 22.4839 23.2315 22.5652 23.0161L22.5724 22.9874Z" fill="#5258F4"/>
</g>
<defs>
<clipPath id="clip0_611_4215">
<rect width="32.1782" height="32.1782" fill="white" transform="translate(0.824219 0.0546875)"/>
</clipPath>
</defs>
</svg>
