<svg width="33" height="33" viewBox="0 0 33 33" fill="none" xmlns="http://www.w3.org/2000/svg">
<g clip-path="url(#clip0_431_3880)">
<path fill-rule="evenodd" clip-rule="evenodd" d="M10.2538 7.8429C10.14 7.68286 9.9937 7.55221 9.82582 7.46069C9.00992 7.02145 8.52344 6.29678 8.52344 5.51887C8.52344 4.21002 9.85362 3.14372 11.4826 3.14372C11.8409 3.14323 12.1961 3.21292 12.5307 3.34929C12.6586 3.39608 12.782 3.45601 12.899 3.52824C13.0851 3.62285 13.289 3.67139 13.4953 3.67021C13.9484 3.67021 14.4071 3.4469 14.7796 2.96773C14.9483 2.72391 15.1444 2.5029 15.3634 2.3096C15.8221 1.89403 16.3183 1.65148 16.7672 1.58789C17.2885 1.65001 17.7861 1.89403 18.2434 2.31256C18.4969 2.53959 18.7212 2.80114 18.9105 3.09048C19.1955 3.44985 19.6541 3.67021 20.1101 3.67021C20.3557 3.66568 20.5966 3.59767 20.812 3.47204C20.9106 3.41474 21.0145 3.36816 21.1219 3.33302C21.4236 3.20879 21.7571 3.14815 22.1185 3.14815C23.7503 3.14815 25.0791 4.21446 25.0791 5.52478C25.0791 6.30122 24.5926 7.02589 23.7753 7.46513C23.577 7.57221 23.4087 7.73305 23.2874 7.93142C23.1661 8.1298 23.0962 8.35869 23.0845 8.59502C23.0838 8.61262 23.0859 8.62849 23.088 8.64426C23.0897 8.65765 23.0915 8.67098 23.0915 8.68524C18.7118 10.6123 14.3682 10.5073 10.4833 8.38502C10.4461 8.18825 10.3677 8.00294 10.2538 7.8429ZM24.1166 10.1421C24.8884 10.7419 25.611 11.4103 26.2766 12.1401C28.4574 14.5167 29.5597 17.0383 29.5527 19.6367C29.5527 21.5475 29.2233 23.2719 28.5714 24.7597C27.9626 26.1396 27.0598 27.3493 25.9347 28.2929C24.8255 29.232 23.4828 29.9522 21.9455 30.4373C20.4166 30.9194 18.7306 31.1664 16.9361 31.1664H16.6581C14.8609 31.1664 13.1763 30.9194 11.6502 30.4373C10.1143 29.9522 8.77297 29.232 7.65962 28.2929C6.53538 27.3491 5.63351 26.1393 5.02566 24.7597C4.37239 23.2719 4.04297 21.5475 4.04297 19.6367C4.04297 17.0353 5.14798 14.5108 7.32742 12.1371C8.05765 11.3341 8.85506 10.6034 9.70979 9.95423C11.9976 11.2054 14.4189 11.8502 16.9111 11.8502C19.2462 11.8502 21.6411 11.3015 24.0402 10.1983C24.057 10.1901 24.07 10.1788 24.083 10.1676C24.0936 10.1585 24.1041 10.1494 24.1166 10.1421ZM20.3276 17.0117C20.4794 16.7936 20.6263 16.5717 20.7682 16.3461C20.9072 16.1125 20.8238 15.8359 20.5264 15.5179C20.4763 15.4558 20.3679 15.3627 20.1997 15.2414C20.0455 15.1275 19.8939 15.0388 19.7577 14.984C19.5353 14.8983 19.3811 14.879 19.2852 14.9397C19.1482 15.0482 19.0321 15.1838 18.9432 15.339C18.9256 15.3659 18.8995 15.4067 18.8647 15.461C18.7924 15.574 18.6824 15.7458 18.5332 15.9734C18.3164 16.3195 18.0884 16.6759 17.841 17.0575C17.6033 17.445 17.3726 17.7925 17.171 18.0942C16.9612 18.4092 16.8513 18.5897 16.8249 18.6503C16.7735 18.7642 16.6665 18.8145 16.5164 18.7834C16.3663 18.7523 16.269 18.6799 16.2175 18.566C16.1842 18.5068 16.0646 18.3309 15.845 18.0484C15.6282 17.7748 15.3947 17.4583 15.1528 17.1019C14.9373 16.7779 14.7219 16.4877 14.5104 16.2029C14.4873 16.1717 14.4642 16.1406 14.4412 16.1095C14.3682 16.0098 14.3028 15.9208 14.2448 15.8418C14.1195 15.6711 14.0285 15.5471 13.9686 15.4632C13.724 14.9633 13.4668 14.8036 13.2 14.984C13.0095 15.0964 12.8358 15.2236 12.6843 15.3508C12.5517 15.4761 12.41 15.5898 12.2603 15.691C11.9921 15.8936 11.9476 16.1613 12.1366 16.4866C12.5939 17.0708 13.0095 17.6165 13.3598 18.1194C13.3834 18.1519 13.4069 18.1843 13.4303 18.2166C13.7033 18.5936 13.964 18.9535 14.2188 19.3158C14.4641 19.6607 14.6234 19.8732 14.6861 19.9568C14.6919 19.9646 14.6969 19.9713 14.7011 19.9769C14.7595 20.0922 14.7011 20.1544 14.5357 20.1544H14.0562C13.8591 20.1551 13.6621 20.162 13.4654 20.1751C13.2041 20.1899 12.9623 20.1854 12.7454 20.1544C12.5554 20.1427 12.3676 20.2036 12.2159 20.3259C12.1528 20.3752 12.107 20.4455 12.0859 20.5256C12.0647 20.6057 12.0694 20.6911 12.0991 20.7681C12.12 20.8879 12.1353 21.0639 12.1353 21.2976V21.8315C12.1353 21.9764 12.1728 22.0592 12.259 22.077C12.3424 22.0888 12.4341 22.0918 12.5453 22.0918H14.9082C15.2307 22.0918 15.3933 22.1657 15.3933 22.3121V23.1492C15.3933 23.3 15.3655 23.374 15.3127 23.374H12.5856C12.423 23.3459 12.3146 23.3888 12.2603 23.5026C12.2089 23.6298 12.1672 23.76 12.1366 23.9034C12.1102 24.042 12.1102 24.1849 12.1366 24.3234C12.1614 24.4334 12.1735 24.5461 12.1728 24.6592C12.1728 25.0422 12.3521 25.2345 12.7065 25.2345H15.1528C15.2946 25.2345 15.3711 25.2581 15.3961 25.2981C15.4211 25.3424 15.4364 25.4371 15.4364 25.585C15.4684 25.7314 15.4767 25.9961 15.4558 26.3747C15.452 26.5116 15.4482 26.6309 15.4451 26.7334C15.4391 26.9245 15.435 27.0569 15.435 27.1349C15.435 27.4602 15.6115 27.62 15.9618 27.62H17.2697C17.4866 27.62 17.6005 27.5505 17.6005 27.3981V25.6308C17.6005 25.3321 17.7228 25.1857 17.9619 25.1857H18.3289C18.5391 25.1868 18.7492 25.1769 18.9585 25.1561C19.1948 25.1457 19.4172 25.1383 19.6285 25.1383H20.158C20.5333 25.1383 20.7349 24.9904 20.7349 24.6976V23.7245C20.7349 23.4568 20.6 23.3252 20.329 23.3252H17.9619C17.6937 23.3858 17.5519 23.3252 17.5519 23.1477C17.5519 23.0649 17.5463 22.951 17.531 22.8164C17.5171 22.6833 17.5144 22.568 17.5144 22.4437C17.512 22.3906 17.5238 22.3378 17.5484 22.2915C17.573 22.2452 17.6094 22.2072 17.6533 22.182C17.7467 22.1228 17.8532 22.0912 17.9619 22.0903H20.3665C20.6292 22.0903 20.7696 21.9912 20.7696 21.7841V20.7208C20.7655 20.5897 20.7143 20.4653 20.6265 20.3732C20.5305 20.2505 20.4152 20.1973 20.2817 20.1973H18.8946C18.7639 20.1973 18.6166 20.1839 18.4679 20.1529C18.3191 20.1174 18.2899 20.0287 18.365 19.8837C18.3712 19.8739 18.3805 19.8586 18.3931 19.838C18.4486 19.7471 18.5672 19.553 18.7542 19.2685C18.9891 18.9076 19.2393 18.5335 19.527 18.1386C19.662 17.9505 19.7903 17.7686 19.9149 17.592C20.0558 17.3922 20.1919 17.1992 20.3276 17.0117Z" fill="#5258F4"/>
</g>
<defs>
<clipPath id="clip0_431_3880">
<rect width="32.1782" height="32.1782" fill="white" transform="translate(0.824219 0.0546875)"/>
</clipPath>
</defs>
</svg>
