<svg width="33" height="33" viewBox="0 0 33 33" fill="none" xmlns="http://www.w3.org/2000/svg">
<g clip-path="url(#clip0_431_2437)">
<path fill-rule="evenodd" clip-rule="evenodd" d="M32.6825 10.8708C32.6864 10.8864 32.6895 10.9023 32.6916 10.9182C32.8936 11.532 33.0037 12.2049 33.0026 12.8777C33.0035 14.9071 32.0445 16.7949 30.4496 17.9899C28.8622 16.1156 26.4916 14.9258 23.8431 14.9258C20.6676 14.9258 17.8915 16.6362 16.386 19.1861C14.6975 19.0352 13.1639 18.2323 12.0826 16.9496C10.8807 18.3813 9.11744 19.2177 7.21361 19.2223H7.21006C6.07559 19.2223 5.06518 18.9903 4.20787 18.5309C2.12546 17.423 0.828466 15.2652 0.826172 12.9021C0.826172 12.2303 0.932888 11.561 1.14509 10.909C1.15785 10.8475 1.17306 10.7873 1.18689 10.7466L4.11033 3.83936C4.56171 2.49139 5.80757 1.63867 7.41083 1.63867H26.498C28.1336 1.63867 29.4342 2.50777 29.904 3.90664L32.6233 10.6759C32.6499 10.7384 32.6684 10.8034 32.6825 10.8708ZM15.1895 23.5794C15.1895 22.6114 15.3484 21.6805 15.6416 20.8114C14.315 20.6293 13.0941 20.1591 12.0848 19.3013C10.7461 20.4427 9.03734 20.9983 7.21707 20.9983H7.21016C6.09885 20.9983 5.47241 20.7873 4.46071 20.4137C4.44144 20.4041 4.42161 20.3977 4.40158 20.3913C4.39271 20.3885 4.38379 20.3856 4.37486 20.3825C4.347 20.3719 4.32291 20.3631 4.29804 20.3541L4.29769 20.354L4.29751 20.3539C4.2791 20.3473 4.26025 20.3404 4.23911 20.3326C4.23911 20.3326 4.07215 20.3036 3.98049 20.3036H3.97816C3.33774 20.3036 2.81925 20.8243 2.82031 21.466L2.82842 27.6829C2.82842 29.3187 4.1614 30.6493 5.80057 30.6493L18.8398 30.6409C16.6308 29.0729 15.1895 26.4945 15.1895 23.5794ZM7.37133 12.0495H25.9342C26.5757 12.0495 27.0942 11.5297 27.0942 10.8893C27.0942 10.2491 26.5757 9.72933 25.9342 9.72933H7.37133C6.7311 9.72933 6.21134 10.249 6.21134 10.8893C6.21134 11.5297 6.73106 12.0495 7.37133 12.0495ZM30.9656 23.5795C30.9656 27.5126 27.7772 30.701 23.8441 30.701C19.911 30.701 16.7227 27.5126 16.7227 23.5795C16.7227 19.6464 19.911 16.458 23.8441 16.458C27.7772 16.458 30.9656 19.6464 30.9656 23.5795ZM26.9491 23.1567L26.8541 23.7793C26.833 23.8848 26.7802 23.9728 26.6958 24.0431C26.6114 24.1064 26.5129 24.1381 26.4003 24.1381H24.9019L24.7963 24.8451H26.6958L26.5903 25.4783C26.5762 25.5838 26.527 25.6717 26.4426 25.7421C26.3581 25.8124 26.2561 25.8476 26.1365 25.8476H24.6486L24.3637 27.6943H22.1054L22.3903 25.8476H20.512L20.6069 25.2039C20.628 25.0984 20.6808 25.014 20.7652 24.9506C20.8496 24.8803 20.9481 24.8451 21.0607 24.8451H22.5486L22.6541 24.1381H20.7758L20.8707 23.5155C20.8848 23.41 20.9341 23.3255 21.0185 23.2622C21.1099 23.1919 21.2119 23.1567 21.3245 23.1567H22.3059L21.124 19.611H22.5275C22.7667 19.611 22.9813 19.6778 23.1712 19.8115C23.3612 19.9452 23.4913 20.121 23.5617 20.3391L24.0893 22.1858H24.1632L25.4823 20.0964C25.7144 19.7728 26.024 19.611 26.4109 19.611H27.7616L25.5878 23.1567H26.9491Z" fill="#5258F4"/>
</g>
<defs>
<clipPath id="clip0_431_2437">
<rect width="32.1782" height="32.1782" fill="white" transform="translate(0.824219 0.0546875)"/>
</clipPath>
</defs>
</svg>
