<svg width="18" height="18" viewBox="0 0 18 18" xmlns="http://www.w3.org/2000/svg">
<path d="M4.42656 10.0302C4.22527 10.1841 4.02398 10.4091 3.96478 10.7051C3.88189 11.0959 3.95294 11.5932 4.32 11.9839C4.78178 12.4457 5.48037 12.5759 5.78823 12.5996C6.60523 12.6588 7.48143 12.2444 8.1445 11.7945C8.405 11.6168 8.8431 11.2498 9.26936 10.6814C8.32211 10.196 7.13805 9.65131 5.88295 9.69867C5.21988 9.72235 4.7581 9.8526 4.42656 10.0302ZM16.4329 12.197C16.8473 11.2143 17.0841 10.1368 17.0841 9.00008C17.0841 4.50066 13.4136 0.830078 8.91414 0.830078C4.41472 0.830078 0.744141 4.50066 0.744141 9.00008C0.744141 13.4995 4.41472 17.1701 8.91414 17.1701C11.6375 17.1701 14.0411 15.8321 15.533 13.7837C14.124 13.0969 11.8151 11.9365 10.3824 11.2498C9.70746 12.0313 8.70101 12.8009 7.56431 13.1324C6.85388 13.3456 6.20265 13.4285 5.53958 13.2864C4.86466 13.1443 4.3792 12.8364 4.09502 12.5286C3.95294 12.3628 3.78717 12.1734 3.65692 11.9247C3.66876 11.9365 3.66876 11.9602 3.66876 11.9721C3.66876 11.9721 3.59772 11.8537 3.55036 11.6642C3.52668 11.5695 3.503 11.4748 3.49116 11.38C3.47931 11.309 3.47931 11.2379 3.49116 11.1787C3.47931 11.0603 3.49116 10.9301 3.51484 10.7998C3.58588 10.4683 3.71613 10.1013 4.08318 9.75788C4.86466 8.98824 5.91847 8.95272 6.46314 8.95272C7.2683 8.96456 8.66549 9.30793 9.84955 9.73419C10.1811 9.0356 10.3942 8.30148 10.5245 7.79234H5.61062V7.25951H8.13266V6.19386H5.08963V5.64919H8.13266V4.58354C8.13266 4.44145 8.16818 4.32305 8.39316 4.32305H9.58905V5.64919H12.8926V6.18202H9.58905V7.24767H12.2295C12.2295 7.24767 11.9572 8.72774 11.1402 10.1841C12.9755 10.8354 15.5685 11.8537 16.4329 12.197Z" />
</svg>
