<?xml version="1.0" standalone="no"?><!DOCTYPE svg PUBLIC "-//W3C//DTD SVG 1.1//EN" "http://www.w3.org/Graphics/SVG/1.1/DTD/svg11.dtd"><svg class="icon" width="200px" height="200.00px" viewBox="0 0 1024 1024" version="1.1" xmlns="http://www.w3.org/2000/svg"><path d="M777.282378 642.299716a189.425398 189.425398 0 0 0-139.637236 55.846362 183.111219 183.111219 0 0 0-60.49667 134.986928 174.151909 174.151909 0 0 0 60.49667 134.986928A200.219233 200.219233 0 0 0 781.932686 1023.923633a189.425398 189.425398 0 0 0 139.637236-55.846362 207.301354 207.301354 0 0 0 55.846362-134.986928 174.151909 174.151909 0 0 0-60.49667-134.986928 209.690503 209.690503 0 0 0-139.637236-55.803699z m51.196054 144.287545l55.846361 9.300616a16.212084 16.212084 0 0 1 9.300617 27.944513l-41.895437 37.245129a17.065351 17.065351 0 0 0-4.650309 13.950924l9.300617 51.196054a20.521085 20.521085 0 0 1-27.944513 18.601233l-46.545745-27.944513a8.532676 8.532676 0 0 0-13.950925 0l-51.196053 27.944513a20.521085 20.521085 0 0 1-27.944513-18.601233l9.300616-51.196054c0-4.650308 0-13.950925-4.650308-13.950924l-41.895437-37.245129a16.212084 16.212084 0 0 1 9.300616-27.944513l55.846362-9.300616c4.650308 0 9.300616-4.650308 13.950925-9.300617l23.251541-46.545745a17.918619 17.918619 0 0 1 32.594821 0l23.251541 46.545745c9.428607 4.607645 14.078915 9.257953 18.729223 9.257953z m65.146978-591.101103L716.785708 23.296764a114.337853 114.337853 0 0 0-69.797287-23.251541H125.727269A78.457952 78.457952 0 0 0 46.586702 79.143126v828.437475a81.572379 81.572379 0 0 0 79.140567 79.140566h456.114174a208.623919 208.623919 0 0 1-65.146978-144.287545 255.980268 255.980268 0 0 1 265.280885-246.679651 200.219233 200.219233 0 0 1 144.287544 55.846361V269.976416a181.618 181.618 0 0 0-32.594821-74.490258zM726.086324 460.767043H242.070301a41.04217 41.04217 0 0 1-41.895438-37.245129 38.01307 38.01307 0 0 1 41.895438-37.24513h484.016023a37.501109 37.501109 0 1 1 0 74.447595zM242.070301 642.299716a41.04217 41.04217 0 0 1-41.895438-37.245129 38.01307 38.01307 0 0 1 41.895438-37.245129H456.155131a41.04217 41.04217 0 0 1 41.895438 37.245129 38.01307 38.01307 0 0 1-41.895438 37.245129z m484.016023-353.722067H242.070301a41.04217 41.04217 0 0 1-41.895438-37.245129 38.01307 38.01307 0 0 1 41.895438-37.245129h484.016023a37.501109 37.501109 0 1 1 0 74.447594z" /></svg>