<svg xmlns="http://www.w3.org/2000/svg" width="90.001" height="90.001" viewBox="0 0 90.001 90.001">
  <path id="web_pc_icon_ty_USDT_TRC20" d="M9135,2134a44.863,44.863,0,1,1,17.515-3.536A44.711,44.711,0,0,1,9135,2134Zm22.677-28.9a3.708,3.708,0,0,0-3.314,1.769,9.74,9.74,0,0,0,0,9.077,3.993,3.993,0,0,0,6.63,0,9.74,9.74,0,0,0,0-9.077A3.79,3.79,0,0,0,9157.678,2105.1Zm-21.285,0a5.326,5.326,0,0,0-4.435,1.921,7.992,7.992,0,0,0-.054,8.789,5.421,5.421,0,0,0,4.522,1.9,5.231,5.231,0,0,0,3.366-1.122,5.315,5.315,0,0,0,1.905-3.332h-1.937a3.759,3.759,0,0,1-1.226,2.073,3.456,3.456,0,0,1-2.124.629,3.492,3.492,0,0,1-2.942-1.242,5.422,5.422,0,0,1-.866-3.3,5.323,5.323,0,0,1,.885-3.264,3.3,3.3,0,0,1,2.873-1.309,3.605,3.605,0,0,1,2.092.544,2.825,2.825,0,0,1,1.139,1.751h1.938a4.493,4.493,0,0,0-1.6-2.924A5.434,5.434,0,0,0,9136.393,2105.1Zm-15.13,7.43h3.147a2.318,2.318,0,0,1,1.562.442,2.065,2.065,0,0,1,.613,1.428l.154,1.5a3.014,3.014,0,0,0,.525,1.581h2.161a2.934,2.934,0,0,1-.732-1.786l-.2-1.954a2.187,2.187,0,0,0-1.785-2.126v-.032a2.641,2.641,0,0,0,1.546-1.071,2.9,2.9,0,0,0,.509-1.684,3.24,3.24,0,0,0-1.138-2.652,4.678,4.678,0,0,0-2.94-.834h-5.407v12.139h1.988v-4.946Zm26.336-5.748a2.27,2.27,0,0,1,1.58.477,1.956,1.956,0,0,1,.525,1.479,2.873,2.873,0,0,1-.8,1.921,11.338,11.338,0,0,1-1.668,1.359,16.608,16.608,0,0,0-2.788,2.228,4.664,4.664,0,0,0-1.207,3.23h8.467v-1.751h-5.985a6.162,6.162,0,0,1,2.263-2.143,15.428,15.428,0,0,0,2.516-1.954,4.231,4.231,0,0,0,1.191-2.875,3.366,3.366,0,0,0-1.125-2.633,4.232,4.232,0,0,0-2.905-1.021,4.079,4.079,0,0,0-3.163,1.327,4.638,4.638,0,0,0-1.188,3.281h1.988a3.684,3.684,0,0,1,.612-2.159A1.96,1.96,0,0,1,9147.6,2106.778Zm-35.735.256v10.439h1.988v-10.439h3.979v-1.7h-9.945v1.7Zm18.595-38.643v5.5a62.9,62.9,0,0,0-12.823,1.728c-3.311.9-5.134,2.032-5.134,3.2s1.824,2.3,5.137,3.2a63.093,63.093,0,0,0,12.82,1.733v17.638h9.116v-17.638a62.792,62.792,0,0,0,12.8-1.729c3.3-.9,5.124-2.032,5.124-3.2,0-2.377-7.538-4.448-17.924-4.926l-.007,0v-5.5h12.611V2060h-34.335v8.391Zm27.22,47.637a2.109,2.109,0,0,1-2.041-1.615,9.174,9.174,0,0,1-.405-3.009,9.021,9.021,0,0,1,.405-3.009,2.076,2.076,0,0,1,2.041-1.617,2.105,2.105,0,0,1,2.042,1.617,8.936,8.936,0,0,1,.407,3.009,9.087,9.087,0,0,1-.407,3.009A2.141,2.141,0,0,1,9157.678,2116.028Zm-33.268-5.2h-3.147v-3.792h3.147a2.8,2.8,0,0,1,1.783.442,1.707,1.707,0,0,1,.563,1.428,1.846,1.846,0,0,1-.562,1.428A2.832,2.832,0,0,1,9124.41,2110.826Zm10.633-28.494c-2.633,0-4.287-.079-4.592-.094v.007a63.168,63.168,0,0,1-11.306-1.372c-2.909-.7-4.511-1.583-4.511-2.488s1.6-1.785,4.514-2.486a63.086,63.086,0,0,1,11.3-1.373v6.151c.331.023,2.117.143,4.633.143,2.588,0,4-.1,4.483-.143v-6.147a63.134,63.134,0,0,1,11.279,1.376c2.9.7,4.5,1.582,4.5,2.483s-1.6,1.784-4.5,2.484a63.063,63.063,0,0,1-11.278,1.375v-.011C9139.228,2082.26,9137.905,2082.332,9135.043,2082.332Z" transform="translate(-9089.999 -2044)" fill="#26a17b"/>
</svg>
